<mxfile host="app.diagrams.net" agent="Mozilla/5.0 (Windows NT 10.0; Win64; x64) AppleWebKit/537.36 (KHTML, like Gecko) Chrome/128.0.0.0 Safari/537.36 OPR/114.0.0.0" version="25.0.3">
  <diagram id="C5RBs43oDa-KdzZeNtuy" name="Page-1">
    <mxGraphModel dx="1009" dy="573" grid="1" gridSize="10" guides="1" tooltips="1" connect="1" arrows="1" fold="1" page="1" pageScale="1" pageWidth="827" pageHeight="1169" math="0" shadow="0">
      <root>
        <mxCell id="WIyWlLk6GJQsqaUBKTNV-0" />
        <mxCell id="WIyWlLk6GJQsqaUBKTNV-1" parent="WIyWlLk6GJQsqaUBKTNV-0" />
        <mxCell id="58P6-ZIJkcbQgJ67dYP4-17" style="edgeStyle=orthogonalEdgeStyle;rounded=0;orthogonalLoop=1;jettySize=auto;html=1;entryX=0.5;entryY=0;entryDx=0;entryDy=0;" edge="1" parent="WIyWlLk6GJQsqaUBKTNV-1" source="58P6-ZIJkcbQgJ67dYP4-16" target="58P6-ZIJkcbQgJ67dYP4-18">
          <mxGeometry relative="1" as="geometry">
            <mxPoint x="179" y="150" as="targetPoint" />
          </mxGeometry>
        </mxCell>
        <mxCell id="58P6-ZIJkcbQgJ67dYP4-16" value="Inicio" style="strokeWidth=2;html=1;shape=mxgraph.flowchart.start_2;whiteSpace=wrap;" vertex="1" parent="WIyWlLk6GJQsqaUBKTNV-1">
          <mxGeometry x="129" y="40" width="100" height="60" as="geometry" />
        </mxCell>
        <mxCell id="58P6-ZIJkcbQgJ67dYP4-23" style="edgeStyle=orthogonalEdgeStyle;rounded=0;orthogonalLoop=1;jettySize=auto;html=1;entryX=0.5;entryY=0;entryDx=0;entryDy=0;entryPerimeter=0;" edge="1" parent="WIyWlLk6GJQsqaUBKTNV-1" source="58P6-ZIJkcbQgJ67dYP4-18" target="58P6-ZIJkcbQgJ67dYP4-24">
          <mxGeometry relative="1" as="geometry">
            <mxPoint x="179" y="240" as="targetPoint" />
          </mxGeometry>
        </mxCell>
        <mxCell id="58P6-ZIJkcbQgJ67dYP4-18" value="Sensor ultrasonico" style="rounded=1;whiteSpace=wrap;html=1;absoluteArcSize=1;arcSize=14;strokeWidth=2;" vertex="1" parent="WIyWlLk6GJQsqaUBKTNV-1">
          <mxGeometry x="129" y="140" width="100" height="50" as="geometry" />
        </mxCell>
        <mxCell id="58P6-ZIJkcbQgJ67dYP4-20" value="Se envia a&amp;nbsp;&lt;div&gt;Ultrasonico&lt;/div&gt;&lt;div&gt;en la base&lt;/div&gt;&lt;div&gt;de datos&lt;/div&gt;" style="shape=parallelogram;html=1;strokeWidth=2;perimeter=parallelogramPerimeter;whiteSpace=wrap;rounded=1;arcSize=12;size=0.23;" vertex="1" parent="WIyWlLk6GJQsqaUBKTNV-1">
          <mxGeometry x="290" y="240" width="120" height="60" as="geometry" />
        </mxCell>
        <mxCell id="58P6-ZIJkcbQgJ67dYP4-29" style="edgeStyle=orthogonalEdgeStyle;rounded=0;orthogonalLoop=1;jettySize=auto;html=1;" edge="1" parent="WIyWlLk6GJQsqaUBKTNV-1" source="58P6-ZIJkcbQgJ67dYP4-24">
          <mxGeometry relative="1" as="geometry">
            <mxPoint x="179" y="120" as="targetPoint" />
            <Array as="points">
              <mxPoint x="70" y="270" />
            </Array>
          </mxGeometry>
        </mxCell>
        <mxCell id="58P6-ZIJkcbQgJ67dYP4-30" value="NO" style="edgeLabel;html=1;align=center;verticalAlign=middle;resizable=0;points=[];" vertex="1" connectable="0" parent="58P6-ZIJkcbQgJ67dYP4-29">
          <mxGeometry x="-0.0893" y="4" relative="1" as="geometry">
            <mxPoint as="offset" />
          </mxGeometry>
        </mxCell>
        <mxCell id="58P6-ZIJkcbQgJ67dYP4-24" value="¿Detectó obstáculo?" style="strokeWidth=2;html=1;shape=mxgraph.flowchart.decision;whiteSpace=wrap;" vertex="1" parent="WIyWlLk6GJQsqaUBKTNV-1">
          <mxGeometry x="129" y="230" width="100" height="80" as="geometry" />
        </mxCell>
        <mxCell id="58P6-ZIJkcbQgJ67dYP4-27" value="" style="group" vertex="1" connectable="0" parent="WIyWlLk6GJQsqaUBKTNV-1">
          <mxGeometry x="264" y="248" width="30" height="30" as="geometry" />
        </mxCell>
        <mxCell id="58P6-ZIJkcbQgJ67dYP4-25" style="edgeStyle=orthogonalEdgeStyle;rounded=0;orthogonalLoop=1;jettySize=auto;html=1;entryX=0;entryY=0.5;entryDx=0;entryDy=0;" edge="1" parent="58P6-ZIJkcbQgJ67dYP4-27" source="58P6-ZIJkcbQgJ67dYP4-24" target="58P6-ZIJkcbQgJ67dYP4-20">
          <mxGeometry relative="1" as="geometry" />
        </mxCell>
        <mxCell id="58P6-ZIJkcbQgJ67dYP4-26" value="Sí" style="text;html=1;align=center;verticalAlign=middle;resizable=0;points=[];autosize=1;strokeColor=none;fillColor=none;" vertex="1" parent="58P6-ZIJkcbQgJ67dYP4-27">
          <mxGeometry width="30" height="30" as="geometry" />
        </mxCell>
      </root>
    </mxGraphModel>
  </diagram>
</mxfile>
